<svg xmlns="http://www.w3.org/2000/svg" viewBox="0 0 300 280" width="300" height="280">
  <style>
    .line { stroke: #333; stroke-width: 2.5; }
    .transversal { stroke: #3498db; stroke-width: 2.5; }
    .angle-arc { fill: none; stroke: #e74c3c; stroke-width: 2; }
    .angle-label { font-family: Arial, sans-serif; font-size: 14px; fill: #e74c3c; font-weight: 500; }
    .line-label { font-family: Arial, sans-serif; font-size: 18px; fill: #333; font-style: italic; }
  </style>

  <!-- Line a -->
  <line x1="20" y1="90" x2="280" y2="90" class="line"/>
  <text x="285" y="95" class="line-label">a</text>

  <!-- Line b -->
  <line x1="20" y1="190" x2="280" y2="190" class="line"/>
  <text x="285" y="195" class="line-label">b</text>

  <!-- Transversal c (from top-left to bottom-right) -->
  <line x1="100" y1="20" x2="220" y2="260" class="transversal"/>
  <text x="225" y="270" class="line-label" fill="#3498db">c</text>

  <!-- Intersection point on line a (approximately x=133) -->
  <circle cx="133" cy="90" r="4" fill="#333"/>

  <!-- Intersection point on line b (approximately x=178) -->
  <circle cx="178" cy="190" r="4" fill="#333"/>

  <!-- Angle 1 at line a (upper-left, between c going up and a going left) -->
  <path d="M 118 90 A 20 20 0 0 1 125 72" class="angle-arc"/>
  <text x="105" y="75" class="angle-label">1</text>

  <!-- Angle 2 at line a (upper-right, between a going right and c going up) -->
  <path d="M 148 90 A 20 20 0 0 0 140 72" class="angle-arc"/>
  <text x="150" y="75" class="angle-label">2</text>

  <!-- Angle 3 at line b (upper-left, between c going up and b going left) -->
  <path d="M 163 190 A 20 20 0 0 1 170 172" class="angle-arc"/>
  <text x="152" y="175" class="angle-label">3</text>

  <!-- Angle 4 at line b (lower-right, between b going right and c going down) -->
  <path d="M 193 190 A 20 20 0 0 0 185 208" class="angle-arc"/>
  <text x="192" y="220" class="angle-label">4</text>
</svg>